<mxfile host="app.diagrams.net" modified="2021-06-05T13:41:40.106Z" agent="5.0 (Windows NT 10.0; Win64; x64) AppleWebKit/537.36 (KHTML, like Gecko) Chrome/86.0.4240.198 Safari/537.36" etag="M3CpX5HIOK9vSXMYjkxV" version="14.6.6" type="github">
  <diagram id="C5RBs43oDa-KdzZeNtuy" name="Page-1">
    <mxGraphModel dx="1016" dy="508" grid="1" gridSize="10" guides="1" tooltips="1" connect="1" arrows="1" fold="1" page="1" pageScale="1" pageWidth="827" pageHeight="1169" math="0" shadow="0">
      <root>
        <mxCell id="WIyWlLk6GJQsqaUBKTNV-0" />
        <mxCell id="WIyWlLk6GJQsqaUBKTNV-1" parent="WIyWlLk6GJQsqaUBKTNV-0" />
        <mxCell id="zwMF5H8uwMDHDBwnJrKp-18" style="edgeStyle=orthogonalEdgeStyle;rounded=0;orthogonalLoop=1;jettySize=auto;html=1;exitX=0.5;exitY=1;exitDx=0;exitDy=0;entryX=0.5;entryY=0;entryDx=0;entryDy=0;shadow=1;" edge="1" parent="WIyWlLk6GJQsqaUBKTNV-1" source="zwMF5H8uwMDHDBwnJrKp-3" target="zwMF5H8uwMDHDBwnJrKp-8">
          <mxGeometry relative="1" as="geometry" />
        </mxCell>
        <mxCell id="zwMF5H8uwMDHDBwnJrKp-3" value="匹配层" style="rounded=0;whiteSpace=wrap;html=1;shadow=1;" vertex="1" parent="WIyWlLk6GJQsqaUBKTNV-1">
          <mxGeometry x="180" y="350" width="120" height="60" as="geometry" />
        </mxCell>
        <mxCell id="zwMF5H8uwMDHDBwnJrKp-16" style="edgeStyle=orthogonalEdgeStyle;rounded=0;orthogonalLoop=1;jettySize=auto;html=1;exitX=0.5;exitY=1;exitDx=0;exitDy=0;shadow=1;" edge="1" parent="WIyWlLk6GJQsqaUBKTNV-1" source="zwMF5H8uwMDHDBwnJrKp-4" target="zwMF5H8uwMDHDBwnJrKp-6">
          <mxGeometry relative="1" as="geometry" />
        </mxCell>
        <mxCell id="zwMF5H8uwMDHDBwnJrKp-4" value="输入层" style="rounded=0;whiteSpace=wrap;html=1;shadow=1;" vertex="1" parent="WIyWlLk6GJQsqaUBKTNV-1">
          <mxGeometry x="180" y="160" width="120" height="60" as="geometry" />
        </mxCell>
        <mxCell id="zwMF5H8uwMDHDBwnJrKp-17" style="edgeStyle=orthogonalEdgeStyle;rounded=0;orthogonalLoop=1;jettySize=auto;html=1;exitX=0.5;exitY=1;exitDx=0;exitDy=0;entryX=0.5;entryY=0;entryDx=0;entryDy=0;shadow=1;" edge="1" parent="WIyWlLk6GJQsqaUBKTNV-1" source="zwMF5H8uwMDHDBwnJrKp-6" target="zwMF5H8uwMDHDBwnJrKp-3">
          <mxGeometry relative="1" as="geometry" />
        </mxCell>
        <mxCell id="zwMF5H8uwMDHDBwnJrKp-6" value="表示层" style="rounded=0;whiteSpace=wrap;html=1;shadow=1;" vertex="1" parent="WIyWlLk6GJQsqaUBKTNV-1">
          <mxGeometry x="180" y="250" width="120" height="60" as="geometry" />
        </mxCell>
        <mxCell id="zwMF5H8uwMDHDBwnJrKp-8" value="匹配得分" style="rounded=1;whiteSpace=wrap;html=1;shadow=1;" vertex="1" parent="WIyWlLk6GJQsqaUBKTNV-1">
          <mxGeometry x="180" y="440" width="120" height="60" as="geometry" />
        </mxCell>
        <mxCell id="zwMF5H8uwMDHDBwnJrKp-14" style="edgeStyle=orthogonalEdgeStyle;rounded=0;orthogonalLoop=1;jettySize=auto;html=1;exitX=0.5;exitY=1;exitDx=0;exitDy=0;entryX=0;entryY=0.5;entryDx=0;entryDy=0;shadow=1;" edge="1" parent="WIyWlLk6GJQsqaUBKTNV-1" source="zwMF5H8uwMDHDBwnJrKp-9" target="zwMF5H8uwMDHDBwnJrKp-4">
          <mxGeometry relative="1" as="geometry" />
        </mxCell>
        <mxCell id="zwMF5H8uwMDHDBwnJrKp-9" value="文本A" style="rounded=1;whiteSpace=wrap;html=1;shadow=1;" vertex="1" parent="WIyWlLk6GJQsqaUBKTNV-1">
          <mxGeometry x="40" y="70" width="120" height="60" as="geometry" />
        </mxCell>
        <mxCell id="zwMF5H8uwMDHDBwnJrKp-20" style="edgeStyle=orthogonalEdgeStyle;rounded=0;orthogonalLoop=1;jettySize=auto;html=1;shadow=1;" edge="1" parent="WIyWlLk6GJQsqaUBKTNV-1" source="zwMF5H8uwMDHDBwnJrKp-19" target="zwMF5H8uwMDHDBwnJrKp-4">
          <mxGeometry relative="1" as="geometry">
            <mxPoint x="380" y="190" as="targetPoint" />
            <Array as="points">
              <mxPoint x="380" y="190" />
            </Array>
          </mxGeometry>
        </mxCell>
        <mxCell id="zwMF5H8uwMDHDBwnJrKp-19" value="文本A" style="rounded=1;whiteSpace=wrap;html=1;shadow=1;" vertex="1" parent="WIyWlLk6GJQsqaUBKTNV-1">
          <mxGeometry x="320" y="70" width="120" height="60" as="geometry" />
        </mxCell>
      </root>
    </mxGraphModel>
  </diagram>
</mxfile>
